<?xml version="1.0" encoding="UTF-8"?>
<svg width="853px" height="409px" viewBox="0 0 853 409" version="1.1" xmlns="http://www.w3.org/2000/svg" xmlns:xlink="http://www.w3.org/1999/xlink">
    <title>cors-logo</title>
    <g id="Page-1" stroke="none" stroke-width="1" fill="none" fill-rule="evenodd">
        <g id="Cors-Logo" transform="translate(-52.000000, -27.000000)">
            <g id="cors-logo" transform="translate(52.000000, 27.000000)">
                <polygon id="Path" fill="#3E363F" fill-rule="nonzero" points="36.1432812 52 36.1432812 167.667582 70 167.667 69.993 194 2 194 2 52"></polygon>
                <path d="M333.307701,52 L365.060596,150.79533 L396.715789,52 L441.85375,52 L441.85375,194 L407.462923,194 L407.462923,160.840659 L410.784764,92.9615385 L376.393937,194 L353.727255,194 L322.533,102.525 L322.541027,69.7960867 L296,52 L333.307701,52 Z M322.518,159.983 L322.560568,160.840659 L322.560568,194 L322.509,194 L322.518,159.983 Z M526.384841,194 C543.710523,193.869963 556.786202,190.310211 565.611878,183.320742 C574.437555,176.331273 578.850393,165.879579 578.850393,151.965659 C578.850393,144.293498 576.863801,137.791667 572.890619,132.460165 C568.917436,127.128663 563.218198,123.487637 555.792906,121.537088 C562.371455,119.066392 567.354217,115.230311 570.741192,110.028846 C574.128167,104.827381 575.821655,98.5531136 575.821655,91.206044 C575.821655,78.4624542 571.050579,68.7422161 561.508427,62.0453297 C552.113078,55.4514722 538.471198,52.1038216 520.582788,52.0023776 L519.741158,52 L468.643423,52 L468.643423,194 L526.384841,194 Z M520.815871,111.199176 L502.936549,111.199176 L502.936549,78.4299451 L519.741158,78.4299451 C527.426987,78.4299451 532.995956,79.7465659 536.448066,82.3798077 C539.900175,85.0130495 541.62623,89.3205128 541.62623,95.3021978 C541.62623,100.503663 540.030444,104.437271 536.838871,107.103022 C533.727087,109.702129 528.572005,111.065076 521.373623,111.191861 L520.815871,111.199176 Z M525.407829,167.667582 L502.936549,167.667582 L502.936549,133.630495 L526.971048,133.630495 C538.760328,133.695513 544.654968,139.644689 544.654968,151.478022 C544.654968,156.614469 542.994047,160.596841 539.672206,163.425137 C536.448066,166.170249 531.874026,167.583174 525.950087,167.663912 L525.407829,167.667582 Z M644.505609,194 C656.815962,193.934982 667.970184,190.992903 677.968275,185.173764 C687.966366,179.354625 695.717329,171.292353 701.221164,160.986951 C706.60535,150.905578 709.355967,139.533096 709.473015,126.869504 L709.476916,126.023352 L709.476916,119.489011 C709.411782,106.615385 706.562163,94.9933608 700.92806,84.6229396 C695.293957,74.2525183 687.461576,66.2227564 677.430918,60.5336538 C667.613678,54.965596 656.579795,52.1223324 644.329269,52.0038631 L643.528597,52 L597.706727,52 L597.706727,194 L644.505609,194 Z M643.919401,167.667582 L631.999853,167.667582 L631.999853,78.4299451 L643.528597,78.4299451 C653.624389,78.4299451 661.310218,81.9084249 666.586083,88.8653846 C671.76939,95.7002924 674.406511,105.798563 674.497446,119.160197 L674.499882,119.879121 L674.499882,126.023352 C674.499882,139.807234 671.861949,150.19391 666.586083,157.183379 C661.404429,164.048036 654.023772,167.541656 644.444109,167.664239 L643.919401,167.667582 Z M752.660853,194 L760.867755,167.472527 L807.862039,167.472527 L816.166642,194 L853,194 L800.436747,52 L768.195346,52 L716.022898,194 L752.660853,194 Z M799.655137,141.042582 L769.074657,141.042582 L784.316046,91.7912088 L799.655137,141.042582 Z" id="Shape" fill="#3E363F" fill-rule="nonzero"></path>
                <path d="M37.4494472,312 C48.0191209,312 56.4816936,309.227273 62.8371655,303.681818 C69.0680203,298.245098 72.7919074,290.449145 74.0088267,280.29396 L74.0788335,279.681818 L65.604871,279.681818 C64.5570154,288.090909 61.8006997,294.397727 57.3359237,298.602273 C52.8711478,302.806818 46.2423223,304.909091 37.4494472,304.909091 C28.5654543,304.909091 21.5152086,301.5 16.2987101,294.681818 C11.1865417,288 8.57933577,279.0918 8.47709241,267.957218 L8.47396251,267.272727 L8.47396251,255.136364 C8.47396251,243.272727 11.1505501,233.977273 16.5037254,227.25 C21.8569006,220.522727 29.0438231,217.159091 38.0644929,217.159091 C54.1663884,217.159091 63.3248489,225.423116 65.5398744,241.951166 L65.604871,242.454545 L74.0788335,242.454545 C73.0765369,232.318182 69.4887705,224.375 63.3155344,218.625 C57.1422982,212.875 48.7252844,210 38.0644929,210 C30.5017091,210 23.8159349,211.852273 18.0071703,215.556818 C12.1984057,219.261364 7.74501949,224.522727 4.6470117,231.340909 C1.64581664,237.946023 0.0983254428,245.489613 0.00453809736,253.97168 L0,254.795455 L0,267.681818 C0.0455589382,276.363636 1.61734231,284.079545 4.7153501,290.829545 C7.8133579,297.579545 12.1984057,302.795455 17.8704935,306.477273 C23.5425813,310.159091 30.0688992,312 37.4494472,312 Z M99.0575831,225.128196 L105.862322,229.229811 C101.308122,235.740546 98.9835826,244.438911 98.8887034,255.324906 L98.8856754,256.022727 L98.8856754,266.386364 L98.8887081,267.062849 C98.9918223,278.517016 101.724348,287.621066 107.086284,294.375 C112.553357,301.261364 119.979464,304.704545 129.364605,304.704545 C138.886423,304.704545 146.31253,301.306818 151.642926,294.511364 C156.872748,287.844125 159.536997,278.606253 159.635673,266.797748 L159.638519,266.113636 L159.638,261.643 L168.042,266.709 L168.039782,267.213874 C167.949647,275.733116 166.462424,283.269618 163.578113,289.823378 L163.294624,290.454545 C160.128278,297.363636 155.606553,302.681818 149.72945,306.409091 C143.852347,310.136364 137.064066,312 129.364605,312 C117.747076,312 108.361935,307.852273 101.209181,299.556818 C94.177661,291.401965 90.6023118,280.446779 90.4831335,266.691262 L90.4800513,265.977273 L90.4800513,255.75 L90.4844754,254.930535 C90.5788564,246.219958 92.1833343,238.481749 95.297909,231.715909 C96.2735575,229.596492 97.3721651,227.625966 98.5937319,225.80433 L99.0575831,225.128196 Z M263.307,245.01 L263.307883,310.636364 L254.902259,310.636364 L225.971,267.666 L232.825,263.507 L254.970598,296.386364 L254.97,250.069 L263.307,245.01 Z M189.229,279.479 L197.703012,284.587 L197.703012,310.636364 L189.229,310.636364 L189.229,279.479 Z M356.11144,211.363 L356.11144,218.522727 L322.010575,218.522727 L322.010575,310.636364 L313.604951,310.636364 L313.604951,218.522727 L306.957,218.522 L318.755,211.363 L356.11144,211.363 Z M380.439913,310.636364 L380.439913,269.318182 L409.34706,269.318182 L433.402179,310.636364 L442.35451,310.636364 L442.35451,309.75 L417.47933,267.545455 C423.766464,265.681818 428.777947,262.318182 432.51378,257.454545 C436.249613,252.590909 438.117529,246.977273 438.117529,240.613636 C438.117529,231.386364 435.133419,224.204545 429.165198,219.068182 C423.316341,214.034545 415.23599,211.467391 404.924143,211.366718 L404.290018,211.363636 L371.965951,211.363636 L371.965951,310.636364 L380.439913,310.636364 Z M406.203493,262.159091 L380.439913,262.159091 L380.439913,218.522727 L404.153341,218.522727 C412.217273,218.522727 418.481627,220.454545 422.946403,224.318182 C427.411179,228.181818 429.643567,233.613636 429.643567,240.613636 C429.643567,246.977273 427.502297,252.159091 423.219756,256.159091 C419.047025,260.056527 413.555091,262.055212 406.743955,262.155146 L406.203493,262.159091 Z M495.863483,312 C503.562944,312 510.351226,310.136364 516.228329,306.409091 C522.105432,302.681818 526.627156,297.363636 529.793503,290.454545 C532.863899,283.754821 534.445618,276.007931 534.538661,267.213874 L534.543022,266.386364 L534.543022,254.522727 C534.406345,245.659091 532.743444,237.863636 529.554318,231.136364 C526.365193,224.409091 521.843468,219.204545 515.989144,215.522727 C510.134821,211.840909 503.380708,210 495.726807,210 C488.072905,210 481.307403,211.875 475.4303,215.625 C469.553197,219.375 465.008693,224.738636 461.796787,231.715909 C458.682213,238.481749 457.077735,246.219958 456.983354,254.930535 L456.97893,255.75 L456.97893,265.977273 C456.97893,280.068182 460.555306,291.261364 467.70806,299.556818 C474.860813,307.852273 484.245954,312 495.863483,312 Z M495.863483,304.704545 C486.478342,304.704545 479.052235,301.261364 473.585163,294.375 C468.223226,287.621066 465.490701,278.517016 465.387587,267.062849 L465.384554,266.386364 L465.384554,256.022727 C465.384554,243.840909 468.12948,234.352273 473.619332,227.556818 C479.109184,220.761364 486.478342,217.363636 495.726807,217.363636 C505.157507,217.363636 512.583614,220.75 518.005127,227.522727 C523.324348,234.167667 526.03414,243.306669 526.134503,254.939731 L526.137398,255.613636 L526.137398,266.113636 C526.137398,278.25 523.4722,287.715909 518.141804,294.511364 C512.811408,301.306818 505.385302,304.704545 495.863483,304.704545 Z M613.337206,310.636364 L613.337206,303.545455 L564.201891,303.545455 L564.201891,211.363636 L555.727928,211.363636 L555.727928,310.636364 L613.337206,310.636364 Z M687.074347,310.636364 L687.074347,303.545455 L637.939032,303.545455 L637.939032,211.363636 L629.46507,211.363636 L629.46507,310.636364 L687.074347,310.636364 Z M765.116808,310.636364 L765.116808,303.545455 L711.607835,303.545455 L711.607835,263.045455 L758.146291,263.045455 L758.146291,255.954545 L711.607835,255.954545 L711.607835,218.522727 L764.775116,218.522727 L764.775116,211.363636 L703.202211,211.363636 L703.202211,310.636364 L765.116808,310.636364 Z M791.085403,310.636364 L791.085403,269.318182 L819.992549,269.318182 L844.047669,310.636364 L853,310.636364 L853,309.75 L828.12482,267.545455 C834.411953,265.681818 839.423436,262.318182 843.159269,257.454545 C846.895102,252.590909 848.763019,246.977273 848.763019,240.613636 C848.763019,231.386364 845.778908,224.204545 839.810687,219.068182 C833.961831,214.034545 825.881479,211.467391 815.569633,211.366718 L814.935507,211.363636 L782.61144,211.363636 L782.61144,310.636364 L791.085403,310.636364 Z M816.848983,262.159091 L791.085403,262.159091 L791.085403,218.522727 L814.79883,218.522727 C822.862762,218.522727 829.127116,220.454545 833.591892,224.318182 C838.056668,228.181818 840.289056,233.613636 840.289056,240.613636 C840.289056,246.977273 838.147786,252.159091 833.865246,256.159091 C829.692514,260.056527 824.200581,262.055212 817.389445,262.155146 L816.848983,262.159091 Z" id="Shape" fill="#B8B42D" fill-rule="nonzero"></path>
                <path d="M197.515379,0 L311,76.5283418 L310.969242,199.93835 L197.866724,269 L84,199.93835 L84.0307575,76.5283418 L197.515379,0 Z M194.322057,52 L152.293587,52 L152.293587,75.7965324 L174.62401,75.7965324 L183.597871,100.90661 L116,193.263139 L149.261192,193.263139 L197.5,130.447 L229.090683,201 L279,187.214411 L271.295688,165.314608 L248.055673,171.634455 L194.322057,52 Z" id="Shape" fill="#F15024" fill-rule="nonzero"></path>
                <rect id="Rectangle" fill="#697A21" x="2" y="331" width="851" height="7"></rect>
                <path d="M134.99,26 L124.569,33 L2,33 L2,26 L134.99,26 Z M853,26 L853,33 L270.465,33 L260.044,26 L853,26 Z" id="Shape" fill="#697A21"></path>
                <path d="M671.835938,408.78125 C678.502604,408.78125 683.873698,407.023438 687.949219,403.507812 C692.02474,399.992188 694.283854,395.174479 694.726562,389.054688 L694.726562,389.054688 L683.007812,389.054688 C682.747396,392.518229 681.72526,395.076823 679.941406,396.730469 C678.157552,398.384115 675.455729,399.210938 671.835938,399.210938 C667.825521,399.210938 664.889323,397.791667 663.027344,394.953125 C661.165365,392.114583 660.234375,387.622396 660.234375,381.476562 L660.234375,381.476562 L660.234375,377.179688 C660.286458,371.294271 661.282552,366.951823 663.222656,364.152344 C665.16276,361.352865 668.085938,359.953125 671.992188,359.953125 C675.585938,359.953125 678.261719,360.779948 680.019531,362.433594 C681.777344,364.08724 682.799479,366.75 683.085938,370.421875 L683.085938,370.421875 L694.804688,370.421875 C694.179688,364.067708 691.861979,359.132812 687.851562,355.617188 C683.841146,352.101562 678.554688,350.34375 671.992188,350.34375 C667.252604,350.34375 663.092448,351.457031 659.511719,353.683594 C655.93099,355.910156 653.177083,359.106771 651.25,363.273438 C649.322917,367.440104 648.359375,372.257812 648.359375,377.726562 L648.359375,377.726562 L648.359375,381.203125 C648.359375,389.770833 650.449219,396.509115 654.628906,401.417969 C658.808594,406.326823 664.544271,408.78125 671.835938,408.78125 Z M725,408.78125 C729.765625,408.78125 733.990885,407.635417 737.675781,405.34375 C741.360677,403.052083 744.192708,399.796875 746.171875,395.578125 C748.151042,391.359375 749.140625,386.450521 749.140625,380.851562 L749.140625,380.851562 L749.140625,378.3125 C749.140625,372.739583 748.13151,367.824219 746.113281,363.566406 C744.095052,359.308594 741.24349,356.040365 737.558594,353.761719 C733.873698,351.483073 729.661458,350.34375 724.921875,350.34375 C720.182292,350.34375 715.970052,351.483073 712.285156,353.761719 C708.60026,356.040365 705.748698,359.308594 703.730469,363.566406 C701.71224,367.824219 700.703125,372.752604 700.703125,378.351562 L700.703125,378.351562 L700.703125,381.164062 C700.729167,386.632812 701.757812,391.470052 703.789062,395.675781 C705.820312,399.88151 708.684896,403.117188 712.382812,405.382812 C716.080729,407.648438 720.286458,408.78125 725,408.78125 Z M725,399.171875 C720.989583,399.171875 717.916667,397.570312 715.78125,394.367188 C713.645833,391.164062 712.578125,386.658854 712.578125,380.851562 L712.578125,380.851562 L712.578125,378.078125 C712.604167,372.166667 713.684896,367.68099 715.820312,364.621094 C717.955729,361.561198 720.989583,360.03125 724.921875,360.03125 C728.880208,360.03125 731.927083,361.580729 734.0625,364.679688 C736.197917,367.778646 737.265625,372.309896 737.265625,378.273438 L737.265625,378.273438 L737.265625,381.046875 C737.239583,386.958333 736.171875,391.457031 734.0625,394.542969 C731.953125,397.628906 728.932292,399.171875 725,399.171875 Z M769.375,408 L769.375,387.179688 L778.710938,387.179688 L789.375,408 L801.953125,408 L801.953125,407.453125 L789.648438,384.210938 C793.059896,382.674479 795.605469,380.610677 797.285156,378.019531 C798.964844,375.428385 799.804688,372.192708 799.804688,368.3125 C799.804688,362.84375 797.981771,358.611979 794.335938,355.617188 C790.690104,352.622396 785.507812,351.125 778.789062,351.125 L778.789062,351.125 L757.65625,351.125 L757.65625,408 L769.375,408 Z M778.828125,377.6875 L769.375,377.6875 L769.375,360.617188 L778.789062,360.617188 C781.940104,360.617188 784.277344,361.385417 785.800781,362.921875 C787.324219,364.458333 788.085938,366.567708 788.085938,369.25 C788.085938,371.880208 787.278646,373.94401 785.664062,375.441406 C784.049479,376.938802 781.770833,377.6875 778.828125,377.6875 L778.828125,377.6875 Z M829.335938,408.78125 C835.638021,408.78125 840.651042,407.38151 844.375,404.582031 C848.098958,401.782552 849.960938,397.921875 849.960938,393 C849.960938,388.572917 848.4375,384.875 845.390625,381.90625 C842.34375,378.9375 837.486979,376.450521 830.820312,374.445312 C827.200521,373.351562 824.459635,372.179688 822.597656,370.929688 C820.735677,369.679688 819.804688,368.130208 819.804688,366.28125 C819.804688,364.302083 820.598958,362.707031 822.1875,361.496094 C823.776042,360.285156 826.002604,359.679688 828.867188,359.679688 C831.835938,359.679688 834.140625,360.402344 835.78125,361.847656 C837.421875,363.292969 838.242188,365.317708 838.242188,367.921875 L838.242188,367.921875 L849.960938,367.921875 C849.960938,364.510417 849.082031,361.463542 847.324219,358.78125 C845.566406,356.098958 843.098958,354.022135 839.921875,352.550781 C836.744792,351.079427 833.125,350.34375 829.0625,350.34375 C825.026042,350.34375 821.386719,351.020833 818.144531,352.375 C814.902344,353.729167 812.415365,355.610677 810.683594,358.019531 C808.951823,360.428385 808.085938,363.169271 808.085938,366.242188 C808.085938,372.153646 811.315104,376.854167 817.773438,380.34375 C820.143229,381.619792 823.359375,382.915365 827.421875,384.230469 C831.484375,385.545573 834.296875,386.795573 835.859375,387.980469 C837.421875,389.165365 838.203125,390.864583 838.203125,393.078125 C838.203125,395.109375 837.421875,396.691406 835.859375,397.824219 C834.296875,398.957031 832.122396,399.523438 829.335938,399.523438 C821.835938,399.523438 818.085938,396.385417 818.085938,390.109375 L818.085938,390.109375 L806.328125,390.109375 C806.328125,393.78125 807.272135,397.010417 809.160156,399.796875 C811.048177,402.583333 813.789062,404.777344 817.382812,406.378906 C820.976562,407.980469 824.960938,408.78125 829.335938,408.78125 Z" id="CORS" fill="#697A21" fill-rule="nonzero"></path>
            </g>
        </g>
    </g>
</svg>